<svg xmlns="http://www.w3.org/2000/svg" xmlns:xlink="http://www.w3.org/1999/xlink" viewBox="0 0 650 650"><defs><style>.cls-1{fill:url(#Безымянный_градиент_263);}.cls-2{fill:url(#Безымянный_градиент_5);}.cls-18,.cls-27,.cls-3,.cls-5{fill:none;stroke-miterlimit:10;}.cls-3{stroke-width:0.73px;stroke:url(#Безымянный_градиент_10);}.cls-4{fill:url(#Безымянный_градиент_17);}.cls-5{stroke-width:2.1px;stroke:url(#Безымянный_градиент_164);}.cls-6{fill:url(#Безымянный_градиент_5-2);}.cls-7{fill:url(#Безымянный_градиент_5-3);}.cls-8{fill:url(#Безымянный_градиент_5-4);}.cls-9{fill:url(#Безымянный_градиент_5-5);}.cls-10{fill:url(#Безымянный_градиент_5-6);}.cls-11{fill:url(#Безымянный_градиент_5-7);}.cls-12{fill:url(#Безымянный_градиент_18);}.cls-13{fill:url(#Безымянный_градиент_33);}.cls-14{fill:url(#Безымянный_градиент_33-2);}.cls-15{fill:url(#Безымянный_градиент_33-3);}.cls-16{fill:url(#Безымянный_градиент_17-2);}.cls-17{fill:url(#Безымянный_градиент_33-4);}.cls-18{stroke-width:1.22px;stroke:url(#Безымянный_градиент_33-5);}.cls-19{fill:url(#Безымянный_градиент_33-6);}.cls-20{fill:url(#Безымянный_градиент_17-3);}.cls-21{fill:url(#Безымянный_градиент_33-7);}.cls-22{fill:url(#Безымянный_градиент_11);}.cls-23{fill:url(#Безымянный_градиент_16);}.cls-24{fill:#1f1844;}.cls-25{fill:#737cbd;}.cls-26{fill:#f0eff3;}.cls-27{stroke:#fff;stroke-width:6px;}.cls-28{fill:#fff;}.cls-29{fill:url(#Безымянный_градиент_123);}.cls-30{fill:url(#Безымянный_градиент_123-2);}.cls-31{fill:url(#Безымянный_градиент_250);}.cls-32{fill:url(#Безымянный_градиент_250-2);}.cls-33{fill:url(#Безымянный_градиент_13);}.cls-34{fill:url(#Безымянный_градиент_123-3);}.cls-35{fill:url(#Безымянный_градиент_123-4);}.cls-36{fill:url(#Безымянный_градиент_122);}.cls-37{fill:url(#Безымянный_градиент_48);}.cls-38{fill:url(#Безымянный_градиент_123-5);}.cls-39{fill:url(#Безымянный_градиент_16-2);}.cls-40{fill:url(#Безымянный_градиент_123-6);}.cls-41{fill:url(#Безымянный_градиент_250-3);}.cls-42{fill:url(#Безымянный_градиент_250-4);}</style><linearGradient id="Безымянный_градиент_263" x1="21.02" y1="294.56" x2="647.53" y2="294.56" gradientUnits="userSpaceOnUse"><stop offset="0" stop-color="#f0f2f5"/><stop offset="0.99" stop-color="#f5f7f8"/></linearGradient><linearGradient id="Безымянный_градиент_5" x1="109.17" y1="457.55" x2="89.89" y2="311.2" gradientUnits="userSpaceOnUse"><stop offset="0" stop-color="#1f1844"/><stop offset="0.99" stop-color="#3d3c99"/></linearGradient><linearGradient id="Безымянный_градиент_10" x1="108.2" y1="453.78" x2="91.24" y2="325.05" gradientUnits="userSpaceOnUse"><stop offset="0" stop-color="#3f3d9e"/><stop offset="0.99" stop-color="#423e9f"/></linearGradient><linearGradient id="Безымянный_градиент_17" x1="118.09" y1="403.72" x2="189.66" y2="387.27" gradientUnits="userSpaceOnUse"><stop offset="0.01" stop-color="#bbc0d9"/><stop offset="1" stop-color="#d6dbf8"/></linearGradient><linearGradient id="Безымянный_градиент_164" x1="363.57" y1="343.48" x2="418.33" y2="353.51" gradientTransform="translate(-297.8 142.66) rotate(-10.18)" gradientUnits="userSpaceOnUse"><stop offset="0" stop-color="#bac6d8"/><stop offset="0.99" stop-color="#d6dbf8"/></linearGradient><linearGradient id="Безымянный_градиент_5-2" x1="107.81" y1="406.72" x2="85.86" y2="385.15" xlink:href="#Безымянный_градиент_5"/><linearGradient id="Безымянный_градиент_5-3" x1="107.11" y1="424.84" x2="81.57" y2="415.95" xlink:href="#Безымянный_градиент_5"/><linearGradient id="Безымянный_градиент_5-4" x1="109.02" y1="406.66" x2="132.24" y2="388.39" xlink:href="#Безымянный_градиент_5"/><linearGradient id="Безымянный_градиент_5-5" x1="107.33" y1="424.87" x2="129.87" y2="414.07" xlink:href="#Безымянный_градиент_5"/><linearGradient id="Безымянный_градиент_5-6" x1="111.35" y1="441.83" x2="81.34" y2="438.25" xlink:href="#Безымянный_градиент_5"/><linearGradient id="Безымянный_градиент_5-7" x1="108.02" y1="443.94" x2="128.52" y2="431.41" xlink:href="#Безымянный_градиент_5"/><linearGradient id="Безымянный_градиент_18" x1="115.71" y1="359.39" x2="108.69" y2="388.08" gradientUnits="userSpaceOnUse"><stop offset="0.01" stop-color="#3d3c99"/><stop offset="1" stop-color="#1f1844"/></linearGradient><linearGradient id="Безымянный_градиент_33" x1="1091.1" y1="614.02" x2="1100.37" y2="614.02" gradientTransform="translate(-1109.83 744.88) rotate(-45.37)" gradientUnits="userSpaceOnUse"><stop offset="0" stop-color="#e0e4eb"/><stop offset="0.99" stop-color="#f3f6fd"/></linearGradient><linearGradient id="Безымянный_градиент_33-2" x1="1464.85" y1="1170.49" x2="1474.21" y2="1170.49" gradientTransform="translate(-1469.3 1463.39) rotate(-72.22)" xlink:href="#Безымянный_градиент_33"/><linearGradient id="Безымянный_градиент_33-3" x1="-859.81" y1="1050.44" x2="-850.53" y2="1050.44" gradientTransform="matrix(0.63, 0.78, -0.78, 0.63, 1474.08, 396.55)" xlink:href="#Безымянный_градиент_33"/><linearGradient id="Безымянный_градиент_17-2" x1="120.81" y1="423.91" x2="130.47" y2="413.99" xlink:href="#Безымянный_градиент_17"/><linearGradient id="Безымянный_градиент_33-4" x1="-945.39" y1="1230.62" x2="-935.88" y2="1230.62" gradientTransform="matrix(0.5, 0.87, -0.77, 0.45, 1536.56, 681.38)" xlink:href="#Безымянный_градиент_33"/><linearGradient id="Безымянный_градиент_33-5" x1="428.42" y1="355.3" x2="442.08" y2="355.3" gradientTransform="translate(-392.99 175.48) rotate(-13.38)" xlink:href="#Безымянный_градиент_33"/><linearGradient id="Безымянный_градиент_33-6" x1="1717.35" y1="1514.02" x2="1727.07" y2="1514.02" gradientTransform="matrix(0.04, -0.93, 1, 0.04, -1493.06, 1979.79)" xlink:href="#Безымянный_градиент_33"/><linearGradient id="Безымянный_градиент_17-3" x1="121.02" y1="439.49" x2="130.68" y2="428.79" xlink:href="#Безымянный_градиент_17"/><linearGradient id="Безымянный_градиент_33-7" x1="-957.72" y1="1499.42" x2="-947.2" y2="1499.42" gradientTransform="matrix(0.35, 0.94, -0.74, 0.28, 1563.81, 911.1)" xlink:href="#Безымянный_градиент_33"/><linearGradient id="Безымянный_градиент_11" x1="117.21" y1="358.97" x2="110.2" y2="387.67" gradientUnits="userSpaceOnUse"><stop offset="0" stop-color="#e6eaf1"/><stop offset="0.99" stop-color="#f3f6fd"/></linearGradient><linearGradient id="Безымянный_градиент_16" x1="88.53" y1="484.86" x2="141.99" y2="472.58" gradientUnits="userSpaceOnUse"><stop offset="0.11" stop-color="#8988d5"/><stop offset="0.56" stop-color="#9d9ce8"/><stop offset="1" stop-color="#a7a5ee"/></linearGradient><linearGradient id="Безымянный_градиент_123" x1="624.4" y1="-74.03" x2="612.16" y2="-95.55" gradientTransform="matrix(-0.65, 0.76, 0.76, 0.65, 754.86, 57.04)" gradientUnits="userSpaceOnUse"><stop offset="0" stop-color="#753200"/><stop offset="1" stop-color="#a04400"/></linearGradient><linearGradient id="Безымянный_градиент_123-2" x1="494.16" y1="-72.4" x2="481.91" y2="-93.92" gradientTransform="matrix(-0.59, 0.81, 0.81, 0.59, 599.97, 124.7)" xlink:href="#Безымянный_градиент_123"/><linearGradient id="Безымянный_градиент_250" x1="-615.98" y1="481.76" x2="-589.4" y2="481.76" gradientTransform="translate(853.23)" gradientUnits="userSpaceOnUse"><stop offset="0" stop-color="#a7a5ee"/><stop offset="0.44" stop-color="#9d9ce8"/><stop offset="0.89" stop-color="#8988d5"/></linearGradient><linearGradient id="Безымянный_градиент_250-2" x1="-576.56" y1="477.5" x2="-527.79" y2="477.5" xlink:href="#Безымянный_градиент_250"/><linearGradient id="Безымянный_градиент_13" x1="1954.24" y1="2413.69" x2="1990.22" y2="2413.69" gradientTransform="translate(-1780.85 2655.26) rotate(-98.82)" gradientUnits="userSpaceOnUse"><stop offset="0" stop-color="#a04400"/><stop offset="0.3" stop-color="#9c4200"/><stop offset="0.62" stop-color="#8e3d00"/><stop offset="0.95" stop-color="#793300"/><stop offset="1" stop-color="#753200"/></linearGradient><linearGradient id="Безымянный_градиент_123-3" x1="1733.21" y1="186.86" x2="1738.1" y2="186.86" gradientTransform="matrix(-0.97, 0.25, 0.25, 0.97, 1862.14, -464.84)" xlink:href="#Безымянный_градиент_123"/><linearGradient id="Безымянный_градиент_123-4" x1="1681.17" y1="226.14" x2="1717.7" y2="205.27" gradientTransform="matrix(-0.97, 0.25, 0.25, 0.97, 1862.14, -464.84)" xlink:href="#Безымянный_градиент_123"/><linearGradient id="Безымянный_градиент_122" x1="1705.73" y1="186.67" x2="1727.19" y2="172.8" gradientTransform="matrix(-0.97, 0.25, 0.25, 0.97, 1862.14, -464.84)" gradientUnits="userSpaceOnUse"><stop offset="0" stop-color="#a04400" stop-opacity="0"/><stop offset="0.18" stop-color="#9a4100" stop-opacity="0.14"/><stop offset="0.52" stop-color="#8a3b00" stop-opacity="0.52"/><stop offset="0.9" stop-color="#753200"/></linearGradient><linearGradient id="Безымянный_градиент_48" x1="1735.23" y1="206.21" x2="1714.59" y2="226.48" gradientTransform="matrix(-0.97, 0.25, 0.25, 0.97, 1862.14, -464.84)" gradientUnits="userSpaceOnUse"><stop offset="0" stop-color="#a04400"/><stop offset="1" stop-color="#753200"/></linearGradient><linearGradient id="Безымянный_градиент_123-5" x1="1735.57" y1="193.15" x2="1733.15" y2="195.53" gradientTransform="matrix(-0.97, 0.25, 0.25, 0.97, 1862.14, -464.84)" xlink:href="#Безымянный_градиент_123"/><linearGradient id="Безымянный_градиент_16-2" x1="2595.19" y1="184.73" x2="2609.5" y2="184.73" gradientTransform="matrix(-1, 0, 0, 1, 2838.91, 0)" xlink:href="#Безымянный_градиент_16"/><linearGradient id="Безымянный_градиент_123-6" x1="1468.44" y1="140.13" x2="1553.58" y2="140.13" gradientTransform="matrix(-0.84, 0.55, 0.55, 0.84, 1514.8, -735.97)" xlink:href="#Безымянный_градиент_123"/><linearGradient id="Безымянный_градиент_250-3" x1="207.22" y1="252.45" x2="331.14" y2="252.45" gradientTransform="matrix(1, 0, 0, 1, 0, 0)" xlink:href="#Безымянный_градиент_250"/><linearGradient id="Безымянный_градиент_250-4" x1="222.6" y1="236.27" x2="294.47" y2="236.27" gradientTransform="matrix(1, 0, 0, 1, 0, 0)" xlink:href="#Безымянный_градиент_250"/></defs><title>1</title><g id="_01" data-name="01"><path class="cls-1" d="M626.13,307c-55-112.47-212.37-277.21-416.84-277.63-213.36-.44-234,211.17-119,270S37.15,431.54,157.35,505.21C279,579.77,539,572.77,603,514.77S649.9,355.64,626.13,307Z"/><path class="cls-2" d="M109.39,458.6s21.23-23.63,19-32.95,10.92-20.63,11.18-34.19c.29-15.36-7.92-11.26-10.76-17.83-4.21-9.74,5.16-18.36-9-22.09C110.1,349,103.3,354,104.18,342S100.73,315.2,93,309.82c-11.08-7.68-33.61-8.29-26,7.2,8,16.28.95,43.09-.91,50.43C46.39,445,109.39,458.6,109.39,458.6Z"/><path class="cls-3" d="M85.7,325.78c2.43,20,27.55,52,16.17,73.43s5.87,54.5,5.87,54.5"/><path class="cls-4" d="M173.72,413.85c-13.79,4.87,1.14,22.71-13.94,30.74s-34.41,12.11-35.29,8.21c-.06-.26-.87-2.85-1.73-6.63-.2-.87-.39-1.82-.59-2.81,0-.28-.1-.56-.16-.84a76.31,76.31,0,0,1-1.14-9.13c0-.09,0-.19,0-.28-.07-1.22-.09-2.44-.07-3.66s.09-2.34.21-3.48c.45-4.34,1.69-8.34,4.23-11.21a12,12,0,0,1,2.2-2c10.48-7.29,14.66-3.75,14.58-14.52-.14-18.46,5.12-21.22,11.3-19.39s11,2.33,11.92-4.49-4.68-37.23,9.37-37.17c24.34.08,12,31.14,9.57,36.18-5.9,12.08,6.37,14,9.28,22.78S187.5,409,173.72,413.85Z"/><path class="cls-5" d="M121.79,479.32s-3.7-34,22.19-53c11.7-8.6,33.44-39.31,31.47-72.54"/><path class="cls-6" d="M85.49,384.82c3.22-5.45,26.34,17,22.29,22S82.43,390,85.49,384.82Z"/><path class="cls-7" d="M79.65,415.5c.46-6.35,28.38,2.78,26.94,9.06S79.21,421.56,79.65,415.5Z"/><path class="cls-8" d="M132.35,387.47c4.94,3.87-19.47,24.9-23.82,20.24S127.64,383.78,132.35,387.47Z"/><path class="cls-9" d="M129.79,414c4.16,4.7-19.41,16.51-23,11.18S125.83,409.48,129.79,414Z"/><path class="cls-10" d="M81.51,438.34c-1.22-5.83,29.55-2.47,29.82,3.53S82.67,443.89,81.51,438.34Z"/><path class="cls-11" d="M128.29,431.54c3.19,5.4-18.86,18.86-21.42,13S125.25,426.4,128.29,431.54Z"/><path class="cls-12" d="M116.13,358.59c6.21.45-1.82,31.75-8,30.3S110.21,358.16,116.13,358.59Z"/><path class="cls-13" d="M87.82,383.34c3.22-5.45,26.34,17,22.29,22S84.76,388.53,87.82,383.34Z"/><path class="cls-14" d="M81.51,414.2c.46-6.35,28.38,2.78,26.94,9.06S81.07,420.25,81.51,414.2Z"/><path class="cls-15" d="M133.29,386.07c4.94,3.87-19.47,24.9-23.82,20.24S128.58,382.38,133.29,386.07Z"/><path class="cls-16" d="M121.52,424.76c.43-4.26,1.62-8.19,4.06-11,3-.59,5.43-.47,6.51.75C134.39,417.11,128.14,421.92,121.52,424.76Z"/><path class="cls-17" d="M131,413c4.16,4.7-19.41,16.51-23,11.18S127,408.48,131,413Z"/><path class="cls-18" d="M109.83,381.51s.71,16.26-1.44,30.45,3.28,38.2,12.12,45.88"/><path class="cls-19" d="M81.51,437.22c-1.22-5.83,29.55-2.47,29.82,3.53S82.67,442.78,81.51,437.22Z"/><path class="cls-20" d="M122.64,441.84c0-.27-.1-.55-.15-.83a76.58,76.58,0,0,1-1.09-9c0-.09,0-.19,0-.28,5-2.78,10.39-4.18,11.8-1.78C135,433,128.83,438.59,122.64,441.84Z"/><path class="cls-21" d="M132.06,427.69c3.19,5.4-18.86,18.86-21.42,13S129,422.55,132.06,427.69Z"/><path class="cls-22" d="M117.64,358.18c6.21.45-1.82,31.75-8,30.3S111.72,357.75,117.64,358.18Z"/><path class="cls-23" d="M123,508.34H103.84a17.22,17.22,0,0,1-17.07-14.92L82,458.22A4,4,0,0,1,86,453.72h54.87a4,4,0,0,1,3.94,4.51L140,493.42A17.22,17.22,0,0,1,123,508.34Z"/><rect class="cls-24" x="339.54" y="63.06" width="214.33" height="443.86" rx="16.49" ry="16.49"/><rect class="cls-25" x="352.13" y="81.27" width="189.14" height="407.42" rx="12.18" ry="12.18"/><path class="cls-24" d="M400.82,74.85h91.77a0,0,0,0,1,0,0v0A19.19,19.19,0,0,1,473.39,94H420a19.19,19.19,0,0,1-19.19-19.19v0A0,0,0,0,1,400.82,74.85Z"/><rect class="cls-26" x="475.48" y="105.11" width="53.58" height="16.88" rx="4.2" ry="4.2"/><rect class="cls-26" x="366.62" y="137.83" width="63.18" height="18.01" rx="4.2" ry="4.2"/><rect class="cls-26" x="371.82" y="110.33" width="52.78" height="6.44" rx="3.22" ry="3.22"/><rect class="cls-26" x="371.93" y="166.47" width="149.55" height="225.42" rx="7.07" ry="7.07"/><rect class="cls-26" x="371.93" y="412.68" width="149.55" height="39.89" rx="7.07" ry="7.07"/><circle class="cls-27" cx="446.7" cy="238.77" r="54.78"/><rect class="cls-28" x="386.71" y="309.78" width="119.99" height="29.19" rx="7.41" ry="7.41"/><rect class="cls-28" x="386.71" y="350.96" width="119.99" height="29.19" rx="7.41" ry="7.41"/><polygon class="cls-29" points="292.86 459.31 296.45 469 295.07 479.01 292.38 481.4 281.11 478.01 278.34 473.73 281.23 458.55 292.86 459.31"/><polygon class="cls-30" points="251.59 460.56 255.3 467.43 256.78 478.64 253.01 482.61 241.49 480.2 238.36 476.17 239.94 460.81 251.59 460.56"/><path class="cls-24" d="M237.25,478.32s-3.42,1.47,3.09,16.55c1.52,3.52,8.42,5.61,15.15,5.42s9.63-1.22,10.1-3.09-3.55-7.9-3.55-7.9Z"/><path class="cls-31" d="M237.31,476.82s-.07-3.2,1.39-3.95c.67,3.78,2.51.84,4.59-1.29,1.8-1.85,2.52-3.37,6-3.64s4.53,2.53,6,3.64c2.55,2,2.6.81,3.42,3.69.72,2.55,2.94,11.86,4.91,15.6a2.21,2.21,0,0,1-.32,2.61c-3.2,3.15-10.42,2-14.38,1.34-4.49-.75-8.54-3.55-10.29-9.53S237.31,476.82,237.31,476.82Z"/><path class="cls-24" d="M276.81,480.88v4.32a3.07,3.07,0,0,0,2.65,3c3,.42,7.9,1.13,10.55,1.65,4,.79,13.65,4.29,19.07,4.64s11.55.44,14.26-1.31,2.1-5.86,2.1-5.86Z"/><path class="cls-32" d="M278.38,469.34s-2.8,10.67-1.22,12.25,13.38,2.36,16.53,4.37,16,5.16,22.83,4.64,8.75-1.4,8.92-3.24-13.56-4.37-16-6.21-3.94-8.31-7.35-10.5-.79-6.12-4.37-6.3-2.62,5.6-8,5.95A48,48,0,0,1,278.38,469.34Z"/><path class="cls-24" d="M226.25,276.4l34.94,8.38,18.59-3.39s28,79.67,29.87,88.72-13.4,92.75-13.4,92.75H277.77s-1.89-23.76,0-45.25,5.48-32.8,5.48-37.32-24.71-52-24.71-52-5.81,28.34-8.09,48.64c-4,35.82,7,88.61,7,88.61H236.78s-7.63-14.48-14-49.55,6.54-33.61-.7-61.69C210.47,309.34,226.25,276.4,226.25,276.4Z"/><path class="cls-33" d="M296.88,323.63a8.44,8.44,0,0,0-2.27,4.12,12.9,12.9,0,0,0,.34,5.14c.43,2.22.91,4.41.43,6.25s-.94,1.81-.26,2.51,3,.22,3.62-1.25,1.48-4,1.48-4a18.54,18.54,0,0,0,1.94,2.78c1,1.22,1.24,5.39.72,6.91-1.08,3.18-2.09,7-1.53,8.15s2.66-1.06,2.66-1.06,4.92-6.15,5.53-9.44c.35-1.87,1.14-4.78.17-8s-2.93-10.45-2.93-10.45l-.09-5.41s-5.63-.51-8.67-1.07C297.2,320,297.26,323.32,296.88,323.63Z"/><path class="cls-34" d="M229.71,158.14c-1.11-1.74-2.76-6.64-3.49-8.12,2.61-.32,5.8,2.88,6.4,5.16C231.94,155.27,230.29,157.47,229.71,158.14Z"/><path class="cls-35" d="M251.92,206c7.44-.7,14-11.37,14-11.37a61.21,61.21,0,0,0,0-7.33L263.65,183l-2,.55-.13-1.44c.58-.07-3.06.65-2.33.47,5.09-1.3,12.86-5.52,14.49-14.15,1.14-6-1.64-11.14-2.08-14.55s.67-6,.85-9.91c.22-5-2.47-10.91-5.05-12.07-11.63-5.28-30.6,3.11-30.6,3.11s-6.25,3.7-2,17.13c-.73-.37.95,2.38,0,2.3a5.88,5.88,0,0,0-4.62,1.38c-2.26,2.21-1.74,6.88,3.89,12.74l.2.21a30.81,30.81,0,0,1,.69,3.88c0,.2.05.4.08.6.3,2.41.69,5.53,1.06,8.55.53,4.35.82,8.12,1,9.58C237.39,194.89,244.47,206.74,251.92,206Z"/><path class="cls-36" d="M234.8,152.11c-4.23-13.43,2-17.13,2-17.13s19-8.39,30.6-3.11c1.82.82,2.43,3.44,3.08,5.67-4.75-3-13.36-.47-20.27.57-3.31.5-1.39,3.87-2.29,4.15-7.52-.43-11.91,3.86-9.33,14.09l-3.74-1.94C235.64,154.31,234.1,151.75,234.8,152.11Z"/><path class="cls-24" d="M225.72,149.29a33.24,33.24,0,0,1-1-8.63c-.23-7.83,3.93-12.22,11.33-15.63l7.18-2.79c.65-.25,12.83-4.39,19.51-2.5,2.5.71,6.16,3.07,6.66,5.15,1.29,5.3,2.13,8.1,2,12.43-5.35-10.15-7.8,4-24.21-3.48-3-1.39-1.39,3.87-2.29,4.15-8.48-.49-13,5-8,18.31-2.34-.67-4-1.58-5.25-1.42C229.55,153.33,226.1,150.53,225.72,149.29Z"/><path class="cls-37" d="M235,173.22c7.18,9.35,17.82,12,24.32,12.58l2.15-1.56c.58-.07-3-1.5-2.28-1.68-4.86-2.38-18.43-9.17-25.16-14l.2.21a30.81,30.81,0,0,1,.69,3.88C235,172.81,235,173,235,173.22Z"/><path class="cls-24" d="M235.31,156c-.31-.21-1.24-.69-1.24-.69l-.07-2.67,4.17,1.45a2.23,2.23,0,0,1,1.49,1.84l1.14,9.26c5.72,1.74,19.21,7.49,21.42,7.3,2.81-.25,2.84-3.85,4.49-3.45s2,2.48,3,2.22a15.8,15.8,0,0,0,4.15-4.93s-.26,6.17-.38,7.27c-.26,2.55-4.11,8.57-4.11,8.57a2.46,2.46,0,0,1-1.8,1.21l-6.56.89-3.71-1.15c-5.12-1.4-18.07-8.82-18.47-10.19C236.48,164.92,238.44,158.14,235.31,156Z"/><path class="cls-38" d="M234.84,158.83s-2.13-2.32-3.21-.24,1.34,5.13,1.34,5.13Z"/><path class="cls-39" d="M229.4,183.45v0c0,1.41,1.32,12.54,3.72,10,1.62-1.69,7.05-2.54,10.59-2.92-3.22-4.06-9.61-15-9.61-15S229.4,182.14,229.4,183.45Z"/><path class="cls-40" d="M291.24,231.42c12.07-1.85,42.89-18.63,42.89-18.63s17.94-1.42,20.2-3.39-.16-3.44,1.23-4.52-1.72-4.36-1.72-4.36v-1c0-1-2.93-5.13-2.93-5.13S364,185.66,362,184.07s-34,19.24-34,19.24L291,214.84Z"/><path class="cls-41" d="M301.16,251.06c-.8-3.33-1-7.06-3.32-17.21,5.94-1.2,33.3-17.07,33.3-17.07l-6.42-13.54S286,211.56,291,211.11c.63-.06-6.09-16.46-12-19.07-2.31-1-13.07-5-13.09-4.7,0,.62-11,11.1-11,11.1l-.2-.13L245,192a7.11,7.11,0,0,1-1.32-1.39c-3.54.37-9,1.23-10.59,2.92-2.39,2.5-3.7-8.62-3.72-10-2.34,1.3-7.06,3.94-10.17,5.77-4.26,2.52-8.2,5.57-9.73,7.76-1.43,2-2.76,8.16-2.13,17.57q.07,1,.17,2.1c1,10.6,6.67,22,8.09,30.6s4.86,40.82,4.86,40.82,37.08,6.93,48,4.06,15.08-7.42,15.08-7.42V270.24s3.14,11.29,6.7,21c1.38,3.75,4.09,26.09,5.43,28.62,1.59,3,9.9,1,11,0C308.28,318.29,302.4,256.23,301.16,251.06Z"/><polygon class="cls-42" points="222.6 223.11 261.57 243.44 294.47 235.77 261.57 249.44 222.6 223.11"/></g></svg>